Complete name                            : D:ripDVDRip.Madonna.The.Confessions.Tour.London(2006).Prozac.mp4
Format                                   : MPEG-4
Format profile                           : Base Media
Codec ID                                 : isom
File size                                : 1.46 GiB
Duration                                 : 2h 1mn
Overall bit rate mode                    : Variable
Overall bit rate                         : 1 721 Kbps
Encoded date                             : UTC 2012-05-01 23:35:00
Tagged date                              : UTC 2012-05-01 23:35:00

Video
ID                                       : 1
Format                                   : AVC
Format/Info                              : Advanced Video Codec
Format profile                           : High@L3.0
Format settings, CABAC                   : Yes
Format settings, ReFrames                : 4 frames
Codec ID                                 : avc1
Codec ID/Info                            : Advanced Video Coding
Duration                                 : 2h 1mn
Bit rate                                 : 1 490 Kbps
Maximum bit rate                         : 9 123 Kbps
Width                                    : 704 pixels
Height                                   : 384 pixels
Display aspect ratio                     : 1.85:1
Frame rate mode                          : Constant
Frame rate                               : 25.000 fps
Color space                              : YUV
Chroma subsampling                       : 4:2:0
Bit depth                                : 8 bits
Scan type                                : Progressive
Bits/(Pixel*Frame)                       : 0.220
Stream size                              : 1.26 GiB (87%)
Title                                    : Video
Writing library                          : x264 core 119 r2106 07efeb4


Audio
ID                                       : 2
Format                                   : AAC
Format/Info                              : Advanced Audio Codec
Format profile                           : HE-AAC / LC
Codec ID                                 : 40
Duration                                 : 2h 1mn
Bit rate mode                            : Variable
Bit rate                                 : 228 Kbps
Maximum bit rate                         : 269 Kbps
Channel(s)                               : 6 channels
Channel positions                        : Front: L C R, Side: L R, LFE
Sampling rate                            : 48.0 KHz / 24.0 KHz
Compression mode                         : Lossy
Delay relative to video                  : -3s 333ms
Stream size                              : 198 MiB (13%)
Language                                 : Portuguese
Encoded date                             : UTC 2012-05-01 23:36:14
Tagged date                              : UTC 2012-05-01 23:36:22